<?xml version="1.0" encoding="UTF-8"?>
<svg width="24px" height="24px" viewBox="0 0 24 24" version="1.1" xmlns="http://www.w3.org/2000/svg">
    <g stroke="none" stroke-width="1" fill="none" fill-rule="evenodd">
        <path d="M9.5,4C14.5,4 18.5,7 18.5,10.8C18.5,14.6 14.5,17.6 9.5,17.6C8.3,17.6 7.2,17.4 6.2,17C5.9,16.9 5.7,16.9 5.5,17L3.7,17.7C3.4,17.8 3.2,17.6 3.3,17.3L4,15.5C4.1,15.3 4,15 3.8,14.8C2.7,13.6 2,12.3 2,10.8C2,7 6,4 11,4M9.5,6.3C9,6.3 8.5,6.7 8.5,7.2C8.5,7.7 9,8.1 9.5,8.1C10,8.1 10.5,7.7 10.5,7.2C10.5,6.7 10,6.3 9.5,6.3M13.5,6.3C13,6.3 12.5,6.7 12.5,7.2C12.5,7.7 13,8.1 13.5,8.1C14,8.1 14.5,7.7 14.5,7.2C14.5,6.7 14,6.3 13.5,6.3M18,10.5C18,13.7 14.7,16.2 10.5,16.2C9.3,16.2 8.2,16 7.1,15.5C6.9,15.4 6.7,15.4 6.5,15.5L4.7,16.2C4.4,16.3 4.2,16.1 4.3,15.8L5,14C5.1,13.8 5,13.5 4.8,13.3C3.7,12.1 3,10.8 3,9.3C3,6.1 6.3,3.6 10.5,3.6C14.7,3.6 18,6.1 18,9.3" fill="#07C160" fill-rule="nonzero"></path>
    </g>
</svg> 