<?xml version="1.0" encoding="UTF-8"?>
<svg width="24px" height="24px" viewBox="0 0 24 24" version="1.1" xmlns="http://www.w3.org/2000/svg">
    <g stroke="none" stroke-width="1" fill="none" fill-rule="evenodd">
        <path d="M17.3,3H6.7C4.7,3 3,4.7 3,6.7V17.3C3,19.3 4.7,21 6.7,21H17.3C19.3,21 21,19.3 21,17.3V6.7C21,4.7 19.3,3 17.3,3M12,15.5C10.1,15.5 8.5,13.9 8.5,12C8.5,10.1 10.1,8.5 12,8.5C13.9,8.5 15.5,10.1 15.5,12C15.5,13.9 13.9,15.5 12,15.5M12,7C9.2,7 7,9.2 7,12C7,14.8 9.2,17 12,17C14.8,17 17,14.8 17,12C17,9.2 14.8,7 12,7M12,10C11.2,10 10.5,10.7 10.5,11.5C10.5,12.3 11.2,13 12,13C12.8,13 13.5,12.3 13.5,11.5C13.5,10.7 12.8,10 12,10" fill="#FE2C55" fill-rule="nonzero"></path>
    </g>
</svg> 